<svg xmlns="http://www.w3.org/2000/svg" xmlns:xlink="http://www.w3.org/1999/xlink" width="169" height="169" fill="none" xmlns:v="https://vecta.io/nano"><g fill="#000" transform="matrix(.817434 0 0 .817434 4.862155 3.240531)"><path d="M44.865 148.332c-7.133-.133-12.767-2.2-16.9-6.2-4.067-4-6.1-9.733-6.1-17.2v-6.6c0-4.133-1.333-6.2-4-6.2h-3v-11.8h3c2.667 0 4-2.067 4-6.2v-6.5c0-7.467 2.033-13.167 6.1-17.1 4.067-4 9.7-6.133 16.9-6.4v11.9c-6.667.4-10 3.7-10 9.9v7.2c0 7-2.3 11.367-6.9 13.1 4.6 1.733 6.9 6.133 6.9 13.2v7.2c0 6.333 3.333 9.633 10 9.9z"/><use xlink:href="#A"/><use xlink:href="#A" x="24"/><use xlink:href="#A" x="49"/><path d="M55.635 168.832v-126.3h37.5v18.75h-18v88.8h18v18.75zm98.5 0h-37.5v-18.75h17.85v-88.8h-17.85v-18.75h37.5z"/></g><defs><path id="A" d="M85.679 8.688c0 1.88-.54 3.98-1.62 6.3-1.08 2.28-1.62 3.82-1.62 4.62 0 1.56 1.08 2.48 3.24 2.76v6.18c-3.12 0-5.7-.7-7.74-2.1-2.08-1.44-3.12-3.58-3.12-6.42 0-1.88.54-3.94 1.62-6.18s1.62-3.82 1.62-4.74c0-1.64-1.08-2.56-3.24-2.76V.168c3.16 0 5.76.7 7.8 2.1 2.04 1.36 3.06 3.5 3.06 6.42z"/></defs></svg>